# xmcd
#
# Track frame offsets: 
#        183
#        24263
#        46500
#        87025
#        107240
#        129165
#        148395
#        178730
#        190590
#        211168
#        233395
#        248180
#
# Disc length: 3480 seconds
#
# Revision: 2
# Processed by: cddbd v1.5.2PL0 Copyright (c) Steve Scherf et al.
# Submitted via: ExactAudioCopyFreeDBPlugin 1.0
#
DISCID=900d960c
DTITLE=El Kroppo - Live
DYEAR=1991
DGENRE=Blues
TTITLE0=Nothing Left But Darkness
TTITLE1=Rain, Rain
TTITLE2=Lost And Lookin'
TTITLE3=Searchin' Man
TTITLE4=I Can't Stand It
TTITLE5=Fire On The Bayou
TTITLE6=For Duane
TTITLE7=I Feel Good
TTITLE8=School Me
TTITLE9=It Really Hurts Me
TTITLE10=Flip, Flop And Fly
TTITLE11=Outro
EXTD=
EXTT0=
EXTT1=
EXTT2=
EXTT3=
EXTT4=
EXTT5=
EXTT6=
EXTT7=
EXTT8=
EXTT9=
EXTT10=
EXTT11=
PLAYORDER=
